<svg width="164" height="50" viewBox="0 0 164 50" fill="none" xmlns="http://www.w3.org/2000/svg">
<path d="M76.2734 30.1631C76.2734 29.833 76.2227 29.5368 76.1211 29.2744C76.028 29.0036 75.8503 28.7581 75.5879 28.5381C75.3255 28.3096 74.9574 28.0853 74.4834 27.8652C74.0094 27.6452 73.3958 27.4167 72.6426 27.1797C71.8047 26.9089 71.0091 26.6042 70.2559 26.2656C69.5111 25.9271 68.8509 25.5335 68.2754 25.085C67.7083 24.6279 67.2598 24.099 66.9297 23.498C66.6081 22.8971 66.4473 22.1989 66.4473 21.4033C66.4473 20.6331 66.6165 19.9349 66.9551 19.3086C67.2936 18.6738 67.7676 18.1322 68.377 17.6836C68.9863 17.2266 69.7057 16.8753 70.5352 16.6299C71.373 16.3844 72.2913 16.2617 73.29 16.2617C74.6527 16.2617 75.8418 16.5072 76.8574 16.998C77.873 17.4889 78.6602 18.1618 79.2188 19.0166C79.7858 19.8714 80.0693 20.849 80.0693 21.9492H76.2861C76.2861 21.4076 76.1719 20.9336 75.9434 20.5273C75.7233 20.1126 75.3848 19.7868 74.9277 19.5498C74.4792 19.3128 73.9121 19.1943 73.2266 19.1943C72.5664 19.1943 72.0163 19.2959 71.5762 19.499C71.1361 19.6937 70.806 19.9603 70.5859 20.2988C70.3659 20.6289 70.2559 21.0013 70.2559 21.416C70.2559 21.7292 70.332 22.0127 70.4844 22.2666C70.6452 22.5205 70.8822 22.7575 71.1953 22.9775C71.5085 23.1976 71.8936 23.4049 72.3506 23.5996C72.8076 23.7943 73.3366 23.9847 73.9375 24.1709C74.9447 24.4756 75.8291 24.8184 76.5908 25.1992C77.361 25.5801 78.0042 26.0075 78.5205 26.4814C79.0368 26.9554 79.4261 27.4928 79.6885 28.0938C79.9508 28.6947 80.082 29.376 80.082 30.1377C80.082 30.9417 79.9255 31.6611 79.6123 32.2959C79.2992 32.9307 78.8464 33.4681 78.2539 33.9082C77.6615 34.3483 76.9548 34.6826 76.1338 34.9111C75.3128 35.1396 74.3945 35.2539 73.3789 35.2539C72.4648 35.2539 71.5635 35.1354 70.6748 34.8984C69.7861 34.653 68.9779 34.2848 68.25 33.7939C67.5306 33.3031 66.9551 32.6768 66.5234 31.915C66.0918 31.1533 65.876 30.252 65.876 29.2109H69.6973C69.6973 29.7865 69.7861 30.2731 69.9639 30.6709C70.1416 31.0687 70.3913 31.3903 70.7129 31.6357C71.043 31.8812 71.4323 32.0589 71.8809 32.1689C72.3379 32.279 72.8372 32.334 73.3789 32.334C74.0391 32.334 74.5807 32.2409 75.0039 32.0547C75.4355 31.8685 75.7529 31.6104 75.9561 31.2803C76.1676 30.9502 76.2734 30.5778 76.2734 30.1631ZM90.7319 21.2637V23.8535H82.7338V21.2637H90.7319ZM84.7143 17.874H88.3705V30.8613C88.3705 31.2591 88.4213 31.5638 88.5229 31.7754C88.6329 31.987 88.7937 32.1351 89.0053 32.2197C89.2169 32.2959 89.4835 32.334 89.8051 32.334C90.0336 32.334 90.2368 32.3255 90.4145 32.3086C90.6007 32.2832 90.7573 32.2578 90.8842 32.2324L90.8969 34.9238C90.5838 35.0254 90.2452 35.1058 89.8813 35.165C89.5174 35.2243 89.1153 35.2539 88.6752 35.2539C87.8712 35.2539 87.1687 35.1227 86.5678 34.8604C85.9754 34.5895 85.5183 34.1579 85.1967 33.5654C84.8751 32.973 84.7143 32.1943 84.7143 31.2295V17.874ZM102.499 31.7119V21.2637H106.155V35H102.715L102.499 31.7119ZM102.905 28.8936L103.984 28.8682C103.984 29.7822 103.878 30.6328 103.667 31.4199C103.455 32.1986 103.138 32.8757 102.715 33.4512C102.292 34.0182 101.758 34.4626 101.115 34.7842C100.472 35.0973 99.7144 35.2539 98.8427 35.2539C98.174 35.2539 97.5562 35.1608 96.9891 34.9746C96.4305 34.7799 95.9481 34.4795 95.5419 34.0732C95.1441 33.6585 94.8309 33.1296 94.6024 32.4863C94.3824 31.8346 94.2723 31.0518 94.2723 30.1377V21.2637H97.9286V30.1631C97.9286 30.5693 97.9751 30.9121 98.0682 31.1914C98.1698 31.4707 98.3095 31.6992 98.4872 31.877C98.6649 32.0547 98.8723 32.1816 99.1093 32.2578C99.3547 32.334 99.6255 32.3721 99.9218 32.3721C100.675 32.3721 101.267 32.2197 101.699 31.915C102.139 31.6104 102.448 31.1956 102.626 30.6709C102.812 30.1377 102.905 29.5452 102.905 28.8936ZM118.62 32.0039V15.5H122.302V35H118.989L118.62 32.0039ZM109.937 28.2969V28.0303C109.937 26.9808 110.055 26.0286 110.292 25.1738C110.529 24.3105 110.876 23.57 111.333 22.9521C111.79 22.3343 112.353 21.8561 113.022 21.5176C113.69 21.179 114.452 21.0098 115.307 21.0098C116.111 21.0098 116.813 21.179 117.414 21.5176C118.024 21.8561 118.54 22.3385 118.963 22.9648C119.395 23.5827 119.742 24.3148 120.004 25.1611C120.267 25.999 120.457 26.9173 120.576 27.916V28.5C120.457 29.4564 120.267 30.3451 120.004 31.166C119.742 31.987 119.395 32.7064 118.963 33.3242C118.54 33.9336 118.024 34.4076 117.414 34.7461C116.805 35.0846 116.094 35.2539 115.282 35.2539C114.427 35.2539 113.665 35.0804 112.996 34.7334C112.336 34.3864 111.778 33.8997 111.321 33.2734C110.872 32.6471 110.529 31.9108 110.292 31.0645C110.055 30.2181 109.937 29.2956 109.937 28.2969ZM113.593 28.0303V28.2969C113.593 28.8639 113.635 29.3929 113.72 29.8838C113.813 30.3747 113.961 30.8105 114.164 31.1914C114.376 31.5638 114.647 31.8558 114.977 32.0674C115.315 32.2705 115.726 32.3721 116.208 32.3721C116.835 32.3721 117.351 32.2324 117.757 31.9531C118.163 31.6654 118.472 31.2718 118.684 30.7725C118.904 30.2731 119.031 29.6976 119.065 29.0459V27.3828C119.039 26.8496 118.963 26.3714 118.836 25.9482C118.718 25.5166 118.54 25.1484 118.303 24.8438C118.075 24.5391 117.787 24.3021 117.44 24.1328C117.101 23.9635 116.699 23.8789 116.234 23.8789C115.76 23.8789 115.354 23.9889 115.015 24.209C114.676 24.4206 114.401 24.7126 114.19 25.085C113.987 25.4574 113.834 25.8975 113.733 26.4053C113.64 26.9046 113.593 27.4463 113.593 28.0303ZM130.578 21.2637V35H126.909V21.2637H130.578ZM126.68 17.6836C126.68 17.1504 126.867 16.7103 127.239 16.3633C127.611 16.0163 128.111 15.8428 128.737 15.8428C129.355 15.8428 129.85 16.0163 130.222 16.3633C130.603 16.7103 130.794 17.1504 130.794 17.6836C130.794 18.2168 130.603 18.6569 130.222 19.0039C129.85 19.3509 129.355 19.5244 128.737 19.5244C128.111 19.5244 127.611 19.3509 127.239 19.0039C126.867 18.6569 126.68 18.2168 126.68 17.6836ZM139.819 35H136.137V20.0449C136.137 19.0039 136.34 18.1279 136.746 17.417C137.161 16.6976 137.741 16.1559 138.486 15.792C139.239 15.4196 140.132 15.2334 141.164 15.2334C141.503 15.2334 141.829 15.2588 142.142 15.3096C142.455 15.3519 142.76 15.4069 143.056 15.4746L143.018 18.2295C142.857 18.1872 142.688 18.1576 142.51 18.1406C142.332 18.1237 142.125 18.1152 141.888 18.1152C141.448 18.1152 141.071 18.1914 140.758 18.3438C140.453 18.4876 140.221 18.7035 140.06 18.9912C139.899 19.279 139.819 19.6302 139.819 20.0449V35ZM142.561 21.2637V23.8535H134.093V21.2637H142.561ZM150.113 33.4512L153.756 21.2637H157.679L152.157 37.0693C152.038 37.4163 151.878 37.7887 151.674 38.1865C151.48 38.5843 151.213 38.9609 150.875 39.3164C150.545 39.6803 150.126 39.9766 149.618 40.2051C149.118 40.4336 148.505 40.5479 147.777 40.5479C147.43 40.5479 147.146 40.5267 146.926 40.4844C146.706 40.4421 146.444 40.3828 146.139 40.3066V37.6279C146.232 37.6279 146.33 37.6279 146.431 37.6279C146.533 37.6364 146.63 37.6406 146.723 37.6406C147.206 37.6406 147.599 37.5856 147.904 37.4756C148.209 37.3656 148.454 37.1963 148.64 36.9678C148.826 36.7477 148.975 36.46 149.085 36.1045L150.113 33.4512ZM148.589 21.2637L151.573 31.2168L152.093 35.0889L149.605 35.3555L144.667 21.2637H148.589Z" fill="#8800FF"/>
<rect width="50" height="50" rx="6" fill="#8800FF"/>
<path d="M28.6094 30.3027C28.6094 29.8457 28.5391 29.4355 28.3984 29.0723C28.2695 28.6973 28.0234 28.3574 27.6602 28.0527C27.2969 27.7363 26.7871 27.4258 26.1309 27.1211C25.4746 26.8164 24.625 26.5 23.582 26.1719C22.4219 25.7969 21.3203 25.375 20.2773 24.9062C19.2461 24.4375 18.332 23.8926 17.5352 23.2715C16.75 22.6387 16.1289 21.9062 15.6719 21.0742C15.2266 20.2422 15.0039 19.2754 15.0039 18.1738C15.0039 17.1074 15.2383 16.1406 15.707 15.2734C16.1758 14.3945 16.832 13.6445 17.6758 13.0234C18.5195 12.3906 19.5156 11.9043 20.6641 11.5645C21.8242 11.2246 23.0957 11.0547 24.4785 11.0547C26.3652 11.0547 28.0117 11.3945 29.418 12.0742C30.8242 12.7539 31.9141 13.6855 32.6875 14.8691C33.4727 16.0527 33.8652 17.4062 33.8652 18.9297H28.627C28.627 18.1797 28.4688 17.5234 28.1523 16.9609C27.8477 16.3867 27.3789 15.9355 26.7461 15.6074C26.125 15.2793 25.3398 15.1152 24.3906 15.1152C23.4766 15.1152 22.7148 15.2559 22.1055 15.5371C21.4961 15.8066 21.0391 16.1758 20.7344 16.6445C20.4297 17.1016 20.2773 17.6172 20.2773 18.1914C20.2773 18.625 20.3828 19.0176 20.5938 19.3691C20.8164 19.7207 21.1445 20.0488 21.5781 20.3535C22.0117 20.6582 22.5449 20.9453 23.1777 21.2148C23.8105 21.4844 24.543 21.748 25.375 22.0059C26.7695 22.4277 27.9941 22.9023 29.0488 23.4297C30.1152 23.957 31.0059 24.5488 31.7207 25.2051C32.4355 25.8613 32.9746 26.6055 33.3379 27.4375C33.7012 28.2695 33.8828 29.2129 33.8828 30.2676C33.8828 31.3809 33.666 32.377 33.2324 33.2559C32.7988 34.1348 32.1719 34.8789 31.3516 35.4883C30.5312 36.0977 29.5527 36.5605 28.416 36.877C27.2793 37.1934 26.0078 37.3516 24.6016 37.3516C23.3359 37.3516 22.0879 37.1875 20.8574 36.8594C19.627 36.5195 18.5078 36.0098 17.5 35.3301C16.5039 34.6504 15.707 33.7832 15.1094 32.7285C14.5117 31.6738 14.2129 30.4258 14.2129 28.9844H19.5039C19.5039 29.7812 19.627 30.4551 19.873 31.0059C20.1191 31.5566 20.4648 32.002 20.9102 32.3418C21.3672 32.6816 21.9062 32.9277 22.5273 33.0801C23.1602 33.2324 23.8516 33.3086 24.6016 33.3086C25.5156 33.3086 26.2656 33.1797 26.8516 32.9219C27.4492 32.6641 27.8887 32.3066 28.1699 31.8496C28.4629 31.3926 28.6094 30.877 28.6094 30.3027Z" fill="white"/>
</svg>
